<svg width="267" height="163" viewBox="0 0 267 163" fill="none" xmlns="http://www.w3.org/2000/svg">
<path d="M221.76 141.34C216.09 138.58 210.45 135.76 204.74 133.09C198.92 130.36 193.04 127.75 186.77 126.2C184.45 125.63 182.02 125.28 179.64 125.26C175.54 125.23 173.23 127.48 172.68 131.56C172.25 134.79 172.6 138.01 173.38 141.13C174.66 146.29 176.18 151.4 177.6 156.52C177.69 156.86 177.8 157.19 177.75 157.63C177.55 157.41 177.36 157.18 177.16 156.96C172.87 152.06 168.67 147.08 164.27 142.28C161.15 138.88 157.73 135.77 153.6 133.58C153.21 133.37 152.8 133.19 152.39 133.02C148.47 131.4 145.36 132.16 142.69 135.45C140.34 138.34 138.91 141.73 137.9 145.25C136.39 150.51 135.14 155.83 133.77 161.13C133.68 161.49 133.6 161.86 133.33 162.25C133.01 160.79 132.69 159.34 132.36 157.88C131.09 152.31 129.76 146.75 127.55 141.46C126.42 138.76 125.12 136.15 122.91 134.14C120.86 132.28 118.49 131.78 115.86 132.53C112.6 133.46 109.97 135.47 107.46 137.63C102.2 142.14 97.6999 147.37 93.2499 152.65C91.8399 154.33 90.4499 156.03 88.9299 157.66C88.9799 157.45 89.0199 157.24 89.0799 157.04C91.0299 151.04 92.9799 145.03 93.8699 138.77C94.1999 136.46 94.3099 134.08 94.1399 131.76C93.8199 127.53 91.3899 125.36 87.1299 125.21C83.5299 125.08 80.1199 126.05 76.7499 127.15C69.7499 129.44 63.0899 132.54 56.4799 135.76C52.8399 137.53 49.2499 139.38 45.6299 141.19C45.4499 141.28 45.2699 141.36 44.9899 141.3C45.3699 141.01 45.7599 140.72 46.1399 140.42C51.5199 136.32 56.7599 132.07 61.3199 127.05C63.5099 124.64 65.5099 122.09 66.7199 119.03C68.2799 115.08 67.2999 112.01 63.7799 109.8C63.1799 109.42 62.5399 109.09 61.8799 108.81C58.2799 107.27 54.4599 106.67 50.5999 106.32C41.8299 105.52 33.0599 105.91 24.2999 106.61C18.8499 107.05 13.3999 107.64 7.68991 108.19C8.65991 107.88 9.3899 107.64 10.1199 107.42C19.8999 104.42 29.7099 101.48 39.1799 97.57C41.7299 96.52 44.1699 95.2 46.5999 93.88C47.5099 93.38 48.3199 92.6 49.0199 91.81C49.8799 90.83 49.7999 89.63 48.6999 88.94C47.2999 88.07 45.7899 87.3 44.2199 86.82C38.9099 85.19 33.4199 84.42 27.9099 83.85C19.0399 82.92 10.1399 82.15 1.25992 81.31C1.05992 81.29 0.869922 81.26 0.669922 81.06C2.32992 80.92 3.99991 80.82 5.65991 80.65C14.8299 79.7 24.0099 78.8 33.1699 77.75C37.2699 77.28 41.3599 76.54 45.2799 75.16C46.3599 74.78 47.4299 74.27 48.3899 73.64C49.7999 72.73 50.0199 71.43 48.7999 70.28C47.5899 69.13 46.1899 68.11 44.7099 67.32C39.5799 64.56 34.0999 62.63 28.5999 60.81C22.0199 58.63 15.3999 56.6 8.78992 54.5C8.53992 54.42 8.28992 54.33 8.06992 54.09C9.15992 54.21 10.2499 54.33 11.3299 54.45C22.6599 55.74 34.0099 56.71 45.4299 56.33C50.5799 56.16 55.7299 55.77 60.6199 53.96C62.2099 53.37 63.7599 52.5 65.1099 51.47C67.1499 49.91 67.7699 47.67 67.2599 45.16C66.7999 42.87 65.6599 40.88 64.3199 39C61.3399 34.83 57.6499 31.33 53.7599 28.04C51.0299 25.74 48.1999 23.57 45.4099 21.34C45.2699 21.23 45.1399 21.12 45.0799 20.88C46.3099 21.5 47.5299 22.12 48.7599 22.74C56.7799 26.8 64.8299 30.78 73.2499 33.95C76.8199 35.29 80.4299 36.5 84.2399 36.96C85.2399 37.08 86.2599 37.13 87.2699 37.09C91.3499 36.93 93.6799 34.76 94.1699 30.68C94.5899 27.2 94.1499 23.76 93.3099 20.42C92.0599 15.49 90.5999 10.62 89.2299 5.73C89.1299 5.37 89.0099 5.01 89.0499 4.59C90.5799 6.44 92.0899 8.3 93.6399 10.13C98.1899 15.48 102.77 20.8 108.2 25.31C110.24 27.01 112.4 28.54 114.92 29.47C118.55 30.82 121.55 30.02 124.03 27.04C126.16 24.48 127.43 21.46 128.53 18.38C130.54 12.77 131.85 6.96 133.09 1.14C133.16 0.82 133.23 0.5 133.31 0.18C133.32 0.14 133.39 0.11 133.52 0C133.91 1.78 134.27 3.5 134.67 5.22C135.98 10.87 137.32 16.53 139.75 21.83C140.58 23.62 141.6 25.38 142.81 26.94C145.32 30.17 148.48 30.9 152.28 29.35C155.53 28.02 158.2 25.84 160.76 23.5C166.82 17.96 172.01 11.64 177.21 5.32C177.39 5.1 177.59 4.89 177.94 4.76C177.83 5.12 177.72 5.47 177.61 5.83C175.75 11.58 173.96 17.34 173 23.33C172.56 26.1 172.27 28.88 172.88 31.67C173.62 35.07 175.76 36.88 179.25 37.1C182.36 37.3 185.35 36.63 188.29 35.75C195.59 33.58 202.47 30.39 209.31 27.1C213.49 25.09 217.62 22.99 221.87 21.02C221.48 21.33 221.09 21.64 220.7 21.95C215.62 25.8 210.69 29.82 206.31 34.47C203.8 37.15 201.45 39.95 200.11 43.44C198.59 47.42 199.68 50.56 203.38 52.7C206.42 54.47 209.81 55.17 213.23 55.65C221.02 56.74 228.85 56.64 236.66 56.1C243.81 55.61 250.94 54.83 258.08 54.18C258.37 54.15 258.65 54.13 258.96 54.23C257.77 54.59 256.59 54.96 255.4 55.32C246.07 58.19 236.73 61.01 227.71 64.75C225.19 65.79 222.76 67.08 220.36 68.38C219.47 68.86 218.66 69.6 217.98 70.36C216.94 71.51 217.05 72.73 218.36 73.55C219.66 74.35 221.09 75.02 222.54 75.48C227.44 77.02 232.52 77.77 237.6 78.31C246.95 79.3 256.31 80.13 265.67 81.03C265.84 81.05 266.01 81.07 266.19 81.26C265.36 81.34 264.53 81.4 263.71 81.49C253.68 82.52 243.64 83.48 233.62 84.6C229.49 85.07 225.37 85.82 221.43 87.23C220.38 87.61 219.34 88.11 218.41 88.74C217.06 89.65 216.85 90.96 218.06 92.05C219.41 93.27 220.94 94.37 222.54 95.22C227.68 97.94 233.17 99.86 238.68 101.67C245.09 103.79 251.54 105.77 257.98 107.81C258.31 107.92 258.64 108.03 258.95 108.26C256.15 107.95 253.35 107.62 250.55 107.34C240.86 106.36 231.16 105.66 221.42 106.01C216.87 106.17 212.33 106.56 207.92 107.8C205.76 108.41 203.68 109.21 201.93 110.67C199.84 112.41 199.05 114.62 199.63 117.28C200.36 120.61 202.32 123.28 204.46 125.81C208.46 130.54 213.16 134.51 218 138.33C219.28 139.34 220.57 140.32 221.86 141.31C221.83 141.33 221.81 141.35 221.78 141.36L221.76 141.34ZM29.3199 103.46C29.3199 103.46 29.3199 103.55 29.3199 103.6C29.4699 103.6 29.6199 103.61 29.7599 103.6C33.3399 103.23 36.9199 102.81 40.4999 102.49C48.4499 101.8 56.4099 101.33 64.3899 102.04C67.7199 102.34 71.0099 102.83 74.1099 104.18C78.4999 106.09 79.7299 109.43 77.4899 113.67C76.6799 115.21 75.6699 116.68 74.5599 118.02C70.6299 122.77 65.8299 126.6 60.9599 130.33C60.6899 130.53 60.4299 130.74 60.1699 130.95C60.4699 131 60.6799 130.92 60.8899 130.82C63.6599 129.44 66.4099 128.03 69.1899 126.67C75.1899 123.76 81.2199 120.92 87.6099 118.98C90.0599 118.24 92.5499 117.64 95.1499 117.76C98.3799 117.91 100.32 119.61 100.73 122.8C100.9 124.18 100.92 125.6 100.81 126.98C100.45 131.33 99.2399 135.51 97.9999 139.68C97.5099 141.32 96.9899 142.95 96.4799 144.59C96.7899 144.48 96.9699 144.3 97.1399 144.11C98.5299 142.44 99.8899 140.75 101.3 139.1C105.04 134.74 108.79 130.37 113.4 126.89C114.95 125.72 116.69 124.72 118.49 124.01C121.1 122.98 123.45 123.7 125.35 125.81C127.05 127.71 128.09 129.98 128.99 132.32C130.84 137.17 131.99 142.22 133.08 147.28C133.17 147.69 133.27 148.09 133.37 148.5C133.59 148.32 133.62 148.18 133.66 148.04C134.73 143.77 135.71 139.48 136.91 135.25C137.78 132.16 138.96 129.15 140.94 126.55C143.23 123.54 145.98 122.84 149.45 124.36C150.05 124.62 150.67 124.89 151.18 125.28C153.12 126.75 155.12 128.16 156.91 129.81C161.46 134.02 165.41 138.79 169.33 143.59C169.64 143.97 169.95 144.34 170.26 144.71C170.3 144.22 170.17 143.83 170.06 143.44C169.02 139.75 167.89 136.08 166.96 132.36C166.19 129.3 165.67 126.17 166.12 122.99C166.61 119.5 168.57 117.82 172.1 117.76C175.15 117.71 178.05 118.53 180.9 119.49C188.39 122.01 195.45 125.52 202.51 129.04C203.88 129.72 205.24 130.42 206.61 131.11C206.49 130.78 206.28 130.59 206.06 130.42C204.75 129.39 203.42 128.39 202.12 127.34C198.47 124.37 194.94 121.27 191.96 117.59C190.61 115.92 189.4 114.15 188.72 112.08C187.72 109.05 188.58 106.6 191.33 104.96C192.34 104.36 193.45 103.88 194.58 103.5C197.65 102.48 200.84 102.1 204.06 101.89C212.85 101.32 221.6 101.98 230.34 102.83C232.76 103.07 235.17 103.34 237.59 103.6C237.27 103.34 236.91 103.22 236.55 103.1C229.93 100.95 223.29 98.86 216.7 96.64C212.9 95.36 209.14 93.9 205.72 91.75C204.97 91.28 204.27 90.7 203.69 90.04C202.89 89.14 203 88.21 203.97 87.5C204.63 87.02 205.37 86.56 206.15 86.32C208.2 85.7 210.26 85.09 212.36 84.7C220.94 83.09 229.63 82.39 238.32 81.65C240.07 81.5 241.83 81.36 243.58 81.21C243.36 81 243.14 80.96 242.92 80.93C235.4 80.21 227.87 79.54 220.36 78.74C215.75 78.25 211.14 77.58 206.72 76.1C205.78 75.79 204.85 75.31 204.03 74.75C202.97 74.03 202.88 73.04 203.75 72.09C204.3 71.48 204.95 70.9 205.67 70.52C207.82 69.38 209.95 68.13 212.23 67.32C219.23 64.81 226.29 62.48 233.33 60.1C234.75 59.62 236.19 59.22 237.62 58.78C237.35 58.65 237.11 58.67 236.88 58.69C229.62 59.29 222.36 60.01 215.09 60.44C208.94 60.8 202.76 60.71 196.71 59.29C194.83 58.84 192.94 58.13 191.25 57.19C188.57 55.7 187.77 53.22 188.7 50.31C188.89 49.72 189.07 49.09 189.41 48.58C190.62 46.78 191.76 44.92 193.17 43.29C196.99 38.89 201.54 35.28 206.16 31.76C206.35 31.62 206.52 31.45 206.7 31.29C204.11 32.42 201.62 33.68 199.12 34.91C193.08 37.87 187.01 40.77 180.61 42.88C177.78 43.81 174.91 44.61 171.88 44.51C168.54 44.4 166.48 42.64 166.17 39.32C166 37.47 166.04 35.57 166.28 33.72C166.95 28.54 168.56 23.58 170.15 18.61C170.25 18.31 170.34 18 170.43 17.7C169.97 17.94 169.7 18.25 169.44 18.57C165.42 23.47 161.37 28.34 156.73 32.68C154.36 34.9 151.89 37.03 148.79 38.18C145.79 39.29 143.32 38.58 141.28 36.12C139.8 34.33 138.83 32.26 138 30.12C136.03 25.02 134.87 19.7 133.71 14.38C133.67 14.18 133.58 13.98 133.45 13.56C133.34 14 133.29 14.2 133.24 14.4C132.06 18.98 130.97 23.58 129.66 28.12C128.81 31.06 127.58 33.89 125.55 36.27C123.64 38.52 121.28 39.21 118.5 38.28C117.71 38.02 116.89 37.73 116.23 37.26C114.14 35.74 112 34.26 110.11 32.53C105.41 28.22 101.37 23.28 97.3399 18.36C97.1299 18.1 96.9099 17.86 96.6999 17.61C96.6399 18.02 96.7399 18.32 96.8299 18.63C97.9499 22.64 99.1399 26.63 100.16 30.66C100.88 33.52 101.26 36.45 100.84 39.42C100.39 42.59 98.5299 44.31 95.3699 44.5C94.5699 44.55 93.7399 44.59 92.9699 44.41C90.3599 43.82 87.7199 43.32 85.1999 42.46C77.9199 39.98 71.0599 36.53 64.1899 33.09C62.9099 32.45 61.6299 31.79 60.3499 31.15C60.4999 31.51 60.7499 31.71 60.9999 31.9C65.5199 35.35 69.9399 38.92 73.7499 43.18C75.6399 45.29 77.3899 47.52 78.2799 50.27C79.2199 53.16 78.4599 55.59 75.8599 57.13C74.3999 58 72.7599 58.64 71.1199 59.11C67.4399 60.16 63.6299 60.41 59.8099 60.52C51.4599 60.77 43.1599 60.1 34.8699 59.24C33.0499 59.05 31.2299 58.84 29.4099 58.64C29.7399 58.9 30.0999 59.02 30.4599 59.14C36.7399 61.17 43.0699 63.07 49.2899 65.27C53.1499 66.63 56.8699 68.4 60.5999 70.1C61.5699 70.54 62.4399 71.31 63.2099 72.08C64.1499 73.01 64.0399 74.06 62.9599 74.81C62.2099 75.33 61.3799 75.83 60.5099 76.05C57.5799 76.8 54.6399 77.69 51.6499 78.05C42.5499 79.14 33.4299 80 24.3199 80.95C24.0199 80.98 23.7199 81 23.4099 81.03C23.6099 81.24 23.7999 81.28 23.9999 81.3C26.1599 81.48 28.3399 81.59 30.4899 81.84C38.2899 82.72 46.0999 83.59 53.8799 84.59C56.6499 84.95 59.3999 85.56 61.9399 86.81C64.3099 87.98 64.4999 89.47 62.3399 91C60.7199 92.14 58.9599 93.12 57.1499 93.93C50.2899 97 43.1199 99.19 35.9699 101.44C33.7899 102.13 31.5999 102.79 29.4099 103.46H29.3199Z" fill="#FF5B00"/>
</svg>
